<?xml version="1.0" encoding="utf-8"?>
<!-- Generator: Adobe Illustrator 24.2.3, SVG Export Plug-In . SVG Version: 6.00 Build 0)  -->
<svg version="1.1" id="Layer_1" xmlns="http://www.w3.org/2000/svg" xmlns:xlink="http://www.w3.org/1999/xlink" x="0px" y="0px"
	 viewBox="0 0 389 389" style="enable-background:new 0 0 389 389;" xml:space="preserve">
<style type="text/css">
	.st0{fill:#949494;}
	.st1{fill:#FFFFFF;}
</style>
<rect class="st0" width="389" height="389"/>
<g>
	<path class="st1" d="M194.5,281.8c-0.9,0-1.7,0-2.6,0l17.8-49h24.6c4.3,0,9-3.3,10.5-7.4l19.4-53.2c3.2-8.7-1.8-15.8-11.1-15.8H219
		l-28.6,78.6h0l-16.2,44.5c-38.4-9.1-67-43.7-67-85c0-40.1,27-73.8,63.7-84.1l-16.7,46h0l-27.8,76.4l18.5,0l23.6-64.9h13.9
		l-23.6,64.9l18.5,0l22-60.5c3.2-8.7-1.8-15.8-11.1-15.8h-15.6l17.9-49.1c1.3-0.1,2.6-0.1,3.9-0.1c48.2,0,87.3,39.1,87.3,87.3
		C281.8,242.7,242.7,281.8,194.5,281.8z M247.3,167.8h-13.9l-19.5,53.4h13.9L247.3,167.8z"/>
</g>
</svg>
